<mxfile host="Electron" modified="2023-08-12T06:30:02.427Z" agent="Mozilla/5.0 (Windows NT 10.0; Win64; x64) AppleWebKit/537.36 (KHTML, like Gecko) draw.io/21.6.8 Chrome/114.0.5735.289 Electron/25.5.0 Safari/537.36" etag="hrSV_Y7o_4TDIg8INNkP" version="21.6.8" type="device">
  <diagram name="Страница — 1" id="9WgCrnL4gKQoHL1HHAPH">
    <mxGraphModel dx="1218" dy="1198" grid="1" gridSize="10" guides="1" tooltips="1" connect="1" arrows="1" fold="1" page="1" pageScale="1" pageWidth="1169" pageHeight="827" math="0" shadow="0">
      <root>
        <mxCell id="0" />
        <mxCell id="1" parent="0" />
        <mxCell id="2i_MUMjd4zva74R1NIPy-1" value="" style="swimlane;startSize=0;" parent="1" vertex="1">
          <mxGeometry x="80" y="350" width="200" height="120" as="geometry">
            <mxRectangle x="80" y="360" width="50" height="40" as="alternateBounds" />
          </mxGeometry>
        </mxCell>
        <mxCell id="2i_MUMjd4zva74R1NIPy-2" value="Web-site" style="rounded=1;whiteSpace=wrap;html=1;fillColor=#dae8fc;strokeColor=#6c8ebf;" parent="2i_MUMjd4zva74R1NIPy-1" vertex="1">
          <mxGeometry x="50" y="20" width="100" height="30" as="geometry" />
        </mxCell>
        <mxCell id="2i_MUMjd4zva74R1NIPy-3" value="Mobile-app" style="rounded=1;whiteSpace=wrap;html=1;fillColor=#dae8fc;strokeColor=#6c8ebf;" parent="2i_MUMjd4zva74R1NIPy-1" vertex="1">
          <mxGeometry x="50" y="70" width="100" height="30" as="geometry" />
        </mxCell>
        <mxCell id="2i_MUMjd4zva74R1NIPy-4" value="&lt;font size=&quot;1&quot; style=&quot;&quot;&gt;&lt;b style=&quot;font-size: 18px;&quot;&gt;User apps&lt;/b&gt;&lt;/font&gt;" style="text;html=1;strokeColor=none;fillColor=none;align=center;verticalAlign=middle;whiteSpace=wrap;rounded=0;" parent="1" vertex="1">
          <mxGeometry x="130" y="280" width="100" height="30" as="geometry" />
        </mxCell>
        <mxCell id="2i_MUMjd4zva74R1NIPy-5" value="&lt;ul&gt;&lt;li&gt;Browser&lt;/li&gt;&lt;li&gt;Android&lt;/li&gt;&lt;/ul&gt;" style="text;html=1;strokeColor=none;fillColor=none;align=center;verticalAlign=middle;whiteSpace=wrap;rounded=0;" parent="1" vertex="1">
          <mxGeometry x="130" y="310" width="60" height="30" as="geometry" />
        </mxCell>
        <mxCell id="2i_MUMjd4zva74R1NIPy-40" style="edgeStyle=orthogonalEdgeStyle;rounded=0;orthogonalLoop=1;jettySize=auto;html=1;exitX=1;exitY=0.75;exitDx=0;exitDy=0;entryX=0;entryY=0.5;entryDx=0;entryDy=0;" parent="1" source="2i_MUMjd4zva74R1NIPy-9" target="2i_MUMjd4zva74R1NIPy-33" edge="1">
          <mxGeometry relative="1" as="geometry" />
        </mxCell>
        <mxCell id="2i_MUMjd4zva74R1NIPy-41" style="edgeStyle=orthogonalEdgeStyle;rounded=0;orthogonalLoop=1;jettySize=auto;html=1;exitX=1;exitY=0.25;exitDx=0;exitDy=0;entryX=0;entryY=0.5;entryDx=0;entryDy=0;" parent="1" source="2i_MUMjd4zva74R1NIPy-9" target="2i_MUMjd4zva74R1NIPy-17" edge="1">
          <mxGeometry relative="1" as="geometry" />
        </mxCell>
        <mxCell id="2i_MUMjd4zva74R1NIPy-9" value="" style="swimlane;startSize=0;" parent="1" vertex="1">
          <mxGeometry x="360" y="330" width="200" height="170" as="geometry">
            <mxRectangle x="80" y="360" width="50" height="40" as="alternateBounds" />
          </mxGeometry>
        </mxCell>
        <mxCell id="2i_MUMjd4zva74R1NIPy-10" value="Authentication" style="rounded=1;whiteSpace=wrap;html=1;fillColor=#d5e8d4;strokeColor=#82b366;" parent="2i_MUMjd4zva74R1NIPy-9" vertex="1">
          <mxGeometry x="50" y="20" width="100" height="30" as="geometry" />
        </mxCell>
        <mxCell id="2i_MUMjd4zva74R1NIPy-11" value="Email sender" style="rounded=1;whiteSpace=wrap;html=1;fillColor=#d5e8d4;strokeColor=#82b366;" parent="2i_MUMjd4zva74R1NIPy-9" vertex="1">
          <mxGeometry x="50" y="120" width="100" height="30" as="geometry" />
        </mxCell>
        <mxCell id="2i_MUMjd4zva74R1NIPy-14" value="Visitor backend" style="rounded=1;whiteSpace=wrap;html=1;fillColor=#d5e8d4;strokeColor=#82b366;" parent="2i_MUMjd4zva74R1NIPy-9" vertex="1">
          <mxGeometry x="50" y="70" width="100" height="30" as="geometry" />
        </mxCell>
        <mxCell id="2i_MUMjd4zva74R1NIPy-12" value="&lt;font size=&quot;1&quot; style=&quot;&quot;&gt;&lt;b style=&quot;font-size: 18px;&quot;&gt;Backend services&lt;/b&gt;&lt;/font&gt;" style="text;html=1;strokeColor=none;fillColor=none;align=center;verticalAlign=middle;whiteSpace=wrap;rounded=0;" parent="1" vertex="1">
          <mxGeometry x="380" y="280" width="160" height="30" as="geometry" />
        </mxCell>
        <mxCell id="2i_MUMjd4zva74R1NIPy-15" style="edgeStyle=orthogonalEdgeStyle;rounded=0;orthogonalLoop=1;jettySize=auto;html=1;exitX=0.5;exitY=1;exitDx=0;exitDy=0;" parent="1" source="2i_MUMjd4zva74R1NIPy-9" target="2i_MUMjd4zva74R1NIPy-9" edge="1">
          <mxGeometry relative="1" as="geometry" />
        </mxCell>
        <mxCell id="2i_MUMjd4zva74R1NIPy-16" value="" style="endArrow=classic;html=1;rounded=0;exitX=1;exitY=0.5;exitDx=0;exitDy=0;entryX=0;entryY=0.471;entryDx=0;entryDy=0;entryPerimeter=0;" parent="1" source="2i_MUMjd4zva74R1NIPy-1" target="2i_MUMjd4zva74R1NIPy-9" edge="1">
          <mxGeometry width="50" height="50" relative="1" as="geometry">
            <mxPoint x="350" y="240" as="sourcePoint" />
            <mxPoint x="400" y="190" as="targetPoint" />
          </mxGeometry>
        </mxCell>
        <mxCell id="2i_MUMjd4zva74R1NIPy-17" value="" style="swimlane;startSize=0;" parent="1" vertex="1">
          <mxGeometry x="640" y="190" width="200" height="250" as="geometry">
            <mxRectangle x="80" y="360" width="50" height="40" as="alternateBounds" />
          </mxGeometry>
        </mxCell>
        <mxCell id="2i_MUMjd4zva74R1NIPy-24" value="Postgres" style="shape=cylinder3;whiteSpace=wrap;html=1;boundedLbl=1;backgroundOutline=1;size=15;fillColor=#e1d5e7;strokeColor=#9673a6;" parent="2i_MUMjd4zva74R1NIPy-17" vertex="1">
          <mxGeometry x="20" y="10" width="60" height="60" as="geometry" />
        </mxCell>
        <mxCell id="2i_MUMjd4zva74R1NIPy-25" value="Users,&lt;br&gt;Profiles,&lt;br&gt;Books,&lt;br&gt;Tags" style="text;html=1;align=center;verticalAlign=middle;resizable=0;points=[];autosize=1;strokeColor=none;fillColor=none;" parent="2i_MUMjd4zva74R1NIPy-17" vertex="1">
          <mxGeometry x="15" y="70" width="70" height="70" as="geometry" />
        </mxCell>
        <mxCell id="2i_MUMjd4zva74R1NIPy-26" value="Sessions" style="shape=cylinder3;whiteSpace=wrap;html=1;boundedLbl=1;backgroundOutline=1;size=15;fillColor=#e1d5e7;strokeColor=#9673a6;" parent="2i_MUMjd4zva74R1NIPy-17" vertex="1">
          <mxGeometry x="125" y="10" width="60" height="60" as="geometry" />
        </mxCell>
        <mxCell id="2i_MUMjd4zva74R1NIPy-27" value="Redis" style="text;html=1;align=center;verticalAlign=middle;resizable=0;points=[];autosize=1;strokeColor=none;fillColor=none;" parent="2i_MUMjd4zva74R1NIPy-17" vertex="1">
          <mxGeometry x="130" y="70" width="50" height="30" as="geometry" />
        </mxCell>
        <mxCell id="2i_MUMjd4zva74R1NIPy-29" value="MinIO" style="text;html=1;align=center;verticalAlign=middle;resizable=0;points=[];autosize=1;strokeColor=none;fillColor=none;opacity=25;" parent="2i_MUMjd4zva74R1NIPy-17" vertex="1">
          <mxGeometry x="125" y="200" width="60" height="30" as="geometry" />
        </mxCell>
        <mxCell id="2i_MUMjd4zva74R1NIPy-30" value="Files" style="shape=cylinder3;whiteSpace=wrap;html=1;boundedLbl=1;backgroundOutline=1;size=15;fillColor=#e1d5e7;strokeColor=#9673a6;opacity=25;" parent="2i_MUMjd4zva74R1NIPy-17" vertex="1">
          <mxGeometry x="125" y="130" width="60" height="60" as="geometry" />
        </mxCell>
        <mxCell id="2i_MUMjd4zva74R1NIPy-31" value="RabbitMQ" style="rounded=0;whiteSpace=wrap;html=1;fillColor=#e1d5e7;strokeColor=#9673a6;opacity=25;" parent="2i_MUMjd4zva74R1NIPy-17" vertex="1">
          <mxGeometry x="15" y="155" width="70" height="35" as="geometry" />
        </mxCell>
        <mxCell id="2i_MUMjd4zva74R1NIPy-21" value="&lt;font size=&quot;1&quot; style=&quot;&quot;&gt;&lt;b style=&quot;font-size: 18px;&quot;&gt;Storages&lt;/b&gt;&lt;/font&gt;" style="text;html=1;strokeColor=none;fillColor=none;align=center;verticalAlign=middle;whiteSpace=wrap;rounded=0;" parent="1" vertex="1">
          <mxGeometry x="660" y="140" width="160" height="30" as="geometry" />
        </mxCell>
        <mxCell id="2i_MUMjd4zva74R1NIPy-22" style="edgeStyle=orthogonalEdgeStyle;rounded=0;orthogonalLoop=1;jettySize=auto;html=1;exitX=0.5;exitY=1;exitDx=0;exitDy=0;" parent="1" source="2i_MUMjd4zva74R1NIPy-17" target="2i_MUMjd4zva74R1NIPy-17" edge="1">
          <mxGeometry relative="1" as="geometry" />
        </mxCell>
        <mxCell id="2i_MUMjd4zva74R1NIPy-33" value="" style="swimlane;startSize=0;" parent="1" vertex="1">
          <mxGeometry x="640" y="520" width="200" height="120" as="geometry">
            <mxRectangle x="80" y="360" width="50" height="40" as="alternateBounds" />
          </mxGeometry>
        </mxCell>
        <mxCell id="2i_MUMjd4zva74R1NIPy-34" value="Email delivery" style="rounded=1;whiteSpace=wrap;html=1;fillColor=#fff2cc;strokeColor=#d6b656;" parent="2i_MUMjd4zva74R1NIPy-33" vertex="1">
          <mxGeometry x="50" y="20" width="100" height="30" as="geometry" />
        </mxCell>
        <mxCell id="2i_MUMjd4zva74R1NIPy-39" value="Payment gateway" style="rounded=1;whiteSpace=wrap;html=1;fillColor=#fff2cc;strokeColor=#d6b656;" parent="2i_MUMjd4zva74R1NIPy-33" vertex="1">
          <mxGeometry x="50" y="70" width="100" height="30" as="geometry" />
        </mxCell>
        <mxCell id="2i_MUMjd4zva74R1NIPy-37" value="&lt;font size=&quot;1&quot; style=&quot;&quot;&gt;&lt;b style=&quot;font-size: 18px;&quot;&gt;Extenal services&lt;/b&gt;&lt;/font&gt;" style="text;html=1;strokeColor=none;fillColor=none;align=center;verticalAlign=middle;whiteSpace=wrap;rounded=0;" parent="1" vertex="1">
          <mxGeometry x="660" y="470" width="160" height="30" as="geometry" />
        </mxCell>
        <mxCell id="2i_MUMjd4zva74R1NIPy-38" style="edgeStyle=orthogonalEdgeStyle;rounded=0;orthogonalLoop=1;jettySize=auto;html=1;exitX=0.5;exitY=1;exitDx=0;exitDy=0;" parent="1" source="2i_MUMjd4zva74R1NIPy-33" target="2i_MUMjd4zva74R1NIPy-33" edge="1">
          <mxGeometry relative="1" as="geometry" />
        </mxCell>
        <mxCell id="2i_MUMjd4zva74R1NIPy-46" value="&lt;font size=&quot;1&quot; style=&quot;&quot;&gt;&lt;b style=&quot;font-size: 18px;&quot;&gt;Addition&lt;/b&gt;&lt;/font&gt;" style="text;html=1;strokeColor=none;fillColor=none;align=center;verticalAlign=middle;whiteSpace=wrap;rounded=0;" parent="1" vertex="1">
          <mxGeometry x="390" y="20" width="100" height="30" as="geometry" />
        </mxCell>
        <mxCell id="2i_MUMjd4zva74R1NIPy-47" value="&lt;ul&gt;&lt;li&gt;Admin functionality&lt;/li&gt;&lt;li&gt;Finance (taxes, payouts, accounting)&lt;/li&gt;&lt;li&gt;Logging&lt;/li&gt;&lt;li&gt;Support&lt;/li&gt;&lt;/ul&gt;" style="text;html=1;strokeColor=none;fillColor=none;align=left;verticalAlign=middle;whiteSpace=wrap;rounded=0;" parent="1" vertex="1">
          <mxGeometry x="340" y="70" width="310" height="30" as="geometry" />
        </mxCell>
      </root>
    </mxGraphModel>
  </diagram>
</mxfile>
